<?xml version="1.0" encoding="iso-8859-1"?>
<!-- Generator: Adobe Illustrator 19.0.0, SVG Export Plug-In . SVG Version: 6.00 Build 0)  -->
<svg version="1.1" id="Capa_1" xmlns="http://www.w3.org/2000/svg" xmlns:xlink="http://www.w3.org/1999/xlink" x="0px" y="0px"
	 viewBox="0 0 496 496" style="enable-background:new 0 0 496 496;" xml:space="preserve">
<path style="fill:#D3A06C;" d="M384,226.336V152H112v74.336c0,32.888-18.584,62.96-48,77.664c0,0,26.144,30.416,94.336,46.408
	h179.336C405.864,334.416,432,304,432,304C402.584,289.288,384,259.224,384,226.336z"/>
<path style="fill:#8C95A4;" d="M296,344l57.704,8.88c28.592,4.4,52.584,23.896,62.744,50.976L448,488H48l31.552-84.144
	c10.16-27.088,34.152-46.584,62.744-50.976L200,344H296z"/>
<path style="fill:#798699;" d="M416.448,403.856c-10.16-27.088-34.152-46.584-62.744-50.976L296,344h-5.6l54.096,27.744
	c25.032,12.84,43.072,36.128,49.248,63.576L405.6,488H448L416.448,403.856z"/>
<path style="fill:#FCD770;" d="M372.76,358.376c-6.04-2.56-12.4-4.48-19.056-5.504L296,344h-96l-57.704,8.88
	c-6.648,1.024-13.016,2.936-19.056,5.504L120,360l112,128h32l112-128L372.76,358.376z"/>
<path style="fill:#FFC729;" d="M358.12,380.432L376,360l-3.24-1.624c-3.008-1.272-6.096-2.392-9.256-3.312
	c-3.136-0.896-6.336-1.632-9.6-2.144c-0.064-0.008-0.128-0.032-0.192-0.04L296,344h-5.6l54.096,27.744
	C349.344,374.224,353.832,377.208,358.12,380.432z"/>
<g>
	<path style="fill:#F9E0A6;" d="M344,184h8c17.672,0,32,14.328,32,32l0,0c0,17.672-14.328,32-32,32h-8V184z"/>
	<path style="fill:#F9E0A6;" d="M152,184h-8c-17.672,0-32,14.328-32,32l0,0c0,17.672,14.328,32,32,32h8V184z"/>
</g>
<polygon style="fill:#ECECEC;" points="160,352 248,448 336,352 336,350.152 296,344 200,344 160,350.152 "/>
<polygon style="fill:#B6C1CE;" points="336,352 336,350.152 296,344 290.4,344 326.408,362.464 "/>
<g>
	<path style="fill:#F9E0A6;" d="M296,312v32l-0.152,0.776C291.28,367.584,271.256,384,248,384l0,0
		c-23.256,0-43.28-16.416-47.848-39.224L200,344v-32H296z"/>
	<path style="fill:#F9E0A6;" d="M144,152L144,152v80c0,57.44,46.56,104,104,104l0,0c57.44,0,104-46.56,104-104v-80H144z"/>
</g>
<path style="fill:#EABD8C;" d="M336,152v80c0,54.736-42.312,99.496-96,103.592c2.648,0.208,5.296,0.408,8,0.408
	c57.44,0,104-46.56,104-104v-80H336z"/>
<path style="fill:#FCD770;" d="M448,184L448,184c10.432,15.648,16,34.04,16,52.848V264h-48v-27.152c0-18.808,5.568-37.192,16-52.848
	l0,0v-8h15.8L448,184z"/>
<circle style="fill:#FFC729;" cx="440" cy="160" r="24"/>
<rect x="96" y="56" style="fill:#8C95A4;" width="304" height="96"/>
<rect x="96" y="48" style="fill:#798699;" width="304" height="32"/>
<rect x="32" y="8" style="fill:#8C95A4;" width="432" height="48"/>
<circle cx="192" cy="184" r="8"/>
<circle cx="304" cy="184" r="8"/>
<path d="M248,296c-26.472,0-48-21.528-48-48h-16c0,35.288,28.712,64,64,64s64-28.712,64-64h-16C296,274.472,274.472,296,248,296z"/>
<path d="M472,64V0H24v64h64v96h16v56v10.336c0,30.048-16.696,57.064-43.576,70.504l-9.176,4.592l6.688,7.784
	c0.952,1.104,20.408,23.08,67.512,39.848c-24.344,8.536-44.144,27.344-53.384,51.984L36.456,496h423.096l-35.608-94.952
	c-9.24-24.64-29.04-43.448-53.384-51.984c47.104-16.776,66.56-38.744,67.512-39.848l6.688-7.784l-9.176-4.592
	C408.696,283.4,392,256.384,392,226.336V216v-56h16V64h24v65.136c-13.768,3.576-24,16-24,30.864
	c0,10.704,5.328,20.136,13.416,25.952C412.624,201.456,408,218.904,408,236.84V272h64v-35.16c0-17.944-4.624-35.392-13.416-50.896
	C466.672,180.136,472,170.704,472,160c0-14.864-10.232-27.288-24-30.864V64H472z M456,236.84V256h-32v-19.16
	c0-16.016,4.408-31.536,12.672-45.184c1.112,0.128,2.192,0.344,3.328,0.344s2.216-0.216,3.328-0.336
	C451.592,205.304,456,220.832,456,236.84z M456,160c0,8.824-7.176,16-16,16s-16-7.176-16-16s7.176-16,16-16S456,151.176,456,160z
	 M136,160v16.808c-5.944,1.216-11.328,3.856-16,7.392V160H136z M248,436.16l-73.464-80.144l19.728-3.032
	C201.864,375.904,223.36,392,248,392c24.44,0,45.808-15.832,53.688-39.032l19.776,3.04L248,436.16z M340.496,358.936l11.992,1.848
	c3.464,0.536,6.832,1.352,10.128,2.368L260.368,480H235.64L133.392,363.152c3.296-1.008,6.664-1.832,10.128-2.368l11.992-1.848
	L248,459.84L340.496,358.936z M288,343.208c-3.808,19-20.624,32.792-40,32.792s-36.192-13.792-40-32.792v-6.72
	c12.44,4.784,25.896,7.512,40,7.512s27.56-2.728,40-7.512V343.208z M248,328c-52.936,0-96-43.064-96-96v-72h192v72
	C344,284.936,300.936,328,248,328z M136,193.472V232c0,2.24,0.208,4.424,0.336,6.632C126.872,235.416,120,226.536,120,216
	C120,205.584,126.712,196.784,136,193.472z M117.808,245.992c5.72,5,12.816,8.36,20.704,9.456
	c6.704,31.328,26.568,57.776,53.488,73.4v8.288l-33.232,5.112c-44.192-10.6-69.848-27.464-81.336-36.768
	C98.424,291.68,112.712,270.32,117.808,245.992z M87.048,406.664c5.88-15.688,17-28.496,31.008-36.736L214.368,480H59.544
	L87.048,406.664z M408.952,406.664L436.456,480H281.632l96.304-110.064C391.952,378.168,403.072,390.976,408.952,406.664z
	 M418.616,305.512c-11.392,9.288-36.84,26.072-81.328,36.744l-33.368-5.136l0.072-8.272c26.92-15.624,46.792-42.072,53.496-73.408
	c7.88-1.096,14.976-4.456,20.704-9.456C383.288,270.336,397.592,291.712,418.616,305.512z M359.664,238.632
	C359.792,236.424,360,234.24,360,232v-38.528c9.288,3.312,16,12.112,16,22.528C376,226.536,369.128,235.416,359.664,238.632z
	 M376,184.208c-4.672-3.536-10.056-6.184-16-7.392V160h16V184.208z M392,144H104V64h256V48H40V16h416v32h-80v16h16V144z"/>
<g>
</g>
<g>
</g>
<g>
</g>
<g>
</g>
<g>
</g>
<g>
</g>
<g>
</g>
<g>
</g>
<g>
</g>
<g>
</g>
<g>
</g>
<g>
</g>
<g>
</g>
<g>
</g>
<g>
</g>
</svg>
