<svg height="496pt" viewBox="0 0 496 496" width="496pt" xmlns="http://www.w3.org/2000/svg"><path d="m64 248h368v240h-368zm0 0" fill="#838f9b"/><path d="m451.054688 120c-42.519532-67.304688-117.566407-112-203.054688-112s-160.535156 44.695312-203.054688 112zm0 0" fill="#f0d0b4"/><path d="m44.945312 120h406.101563c-3.480469-5.511719-7.253906-10.808594-11.160156-16h-383.78125c-3.90625 5.191406-7.679688 10.488281-11.160157 16zm0 0" fill="#ecc19c"/><path d="m136 120c0-32 40-88 112-112 72 24 112 80 112 112zm0 0" fill="#f5e0cd"/><path d="m138.824219 104c-1.800781 5.734375-2.824219 11.167969-2.824219 16h224c0-4.832031-1.023438-10.265625-2.824219-16zm0 0" fill="#f0d0b4"/><path d="m187.3125 120h121.375l-60.6875-34.390625zm0 0" fill="#f0d0b4"/><path d="m215.542969 104-28.230469 16h121.375l-28.230469-16zm0 0" fill="#ecc19c"/><path d="m24 296h448v32h-448zm0 0" fill="#aab2bd"/><path d="m332.703125 152h155.296875v-32h-480v32zm0 0" fill="#dfb28b"/><path d="m24 152h448v80h-448zm0 0" fill="#f5e0cd"/><path d="m24 152h448v16h-448zm0 0" fill="#f0d0b4"/><path d="m308.6875 120h-121.375l-56.472656 32h234.320312zm0 0" fill="#cf9e76"/><path d="m365.160156 152h-234.320312l-106.839844 60.542969v19.457031h448v-19.457031zm0 0" fill="#f0d0b4"/><path d="m248 104 240 136v8h-480v-8zm0 0" fill="#969faa"/><path d="m64 248 184-107.214844 184 107.214844zm0 0" fill="#ccd1d9"/><path d="m32 248h32v48h-32zm0 0" fill="#aab2bd"/><path d="m104 488v-16c0-8.839844-7.160156-16-16-16h-32c-8.839844 0-16 7.160156-16 16v16zm0 0" fill="#e6e9ed"/><path d="m40 328v16c0 8.839844 7.160156 16 16 16h32c8.839844 0 16-7.160156 16-16v-16zm0 0" fill="#e6e9ed"/><path d="m56 360h32v96h-32zm0 0" fill="#e6e9ed"/><path d="m216 488v-16c0-8.839844-7.160156-16-16-16h-32c-8.839844 0-16 7.160156-16 16v16zm0 0" fill="#e6e9ed"/><path d="m152 328v16c0 8.839844 7.160156 16 16 16h32c8.839844 0 16-7.160156 16-16v-16zm0 0" fill="#e6e9ed"/><path d="m168 360h32v96h-32zm0 0" fill="#e6e9ed"/><path d="m344 488v-16c0-8.839844-7.160156-16-16-16h-32c-8.839844 0-16 7.160156-16 16v16zm0 0" fill="#e6e9ed"/><path d="m280 328v16c0 8.839844 7.160156 16 16 16h32c8.839844 0 16-7.160156 16-16v-16zm0 0" fill="#e6e9ed"/><path d="m296 360h32v96h-32zm0 0" fill="#e6e9ed"/><path d="m456 488v-16c0-8.839844-7.160156-16-16-16h-32c-8.839844 0-16 7.160156-16 16v16zm0 0" fill="#e6e9ed"/><path d="m392 328v16c0 8.839844 7.160156 16 16 16h32c8.839844 0 16-7.160156 16-16v-16zm0 0" fill="#e6e9ed"/><path d="m408 360h32v96h-32zm0 0" fill="#e6e9ed"/><path d="m280 216c0 17.671875-14.328125 32-32 32s-32-14.328125-32-32 14.328125-32 32-32 32 14.328125 32 32zm0 0" fill="#e6e9ed"/><path d="m112 248h32v48h-32zm0 0" fill="#aab2bd"/><path d="m192 248h32v48h-32zm0 0" fill="#aab2bd"/><path d="m272 248h32v48h-32zm0 0" fill="#aab2bd"/><path d="m352 248h32v48h-32zm0 0" fill="#aab2bd"/><path d="m432 248h32v48h-32zm0 0" fill="#aab2bd"/><g fill="#ccd1d9"><path d="m40 328h64v16h-64zm0 0"/><path d="m152 328h64v16h-64zm0 0"/><path d="m280 328h64v16h-64zm0 0"/><path d="m392 328h64v16h-64zm0 0"/><path d="m394.214844 464c-1.367188 2.359375-2.214844 5.070312-2.214844 8v16h64v-16c0-2.929688-.847656-5.640625-2.214844-8zm0 0"/><path d="m282.214844 464c-1.367188 2.359375-2.214844 5.070312-2.214844 8v16h64v-16c0-2.929688-.847656-5.640625-2.214844-8zm0 0"/><path d="m154.214844 464c-1.367188 2.359375-2.214844 5.070312-2.214844 8v16h64v-16c0-2.929688-.847656-5.640625-2.214844-8zm0 0"/><path d="m42.214844 464c-1.367188 2.359375-2.214844 5.070312-2.214844 8v16h64v-16c0-2.929688-.847656-5.640625-2.214844-8zm0 0"/><path d="m56 360h32v16h-32zm0 0"/><path d="m56 440h32v16h-32zm0 0"/><path d="m168 360h32v16h-32zm0 0"/><path d="m168 440h32v16h-32zm0 0"/><path d="m296 360h32v16h-32zm0 0"/><path d="m296 440h32v16h-32zm0 0"/><path d="m408 360h32v16h-32zm0 0"/><path d="m408 440h32v16h-32zm0 0"/></g><path d="m32 280h32v16h-32zm0 0" fill="#969faa"/><path d="m112 280h32v16h-32zm0 0" fill="#969faa"/><path d="m32 248h32v16h-32zm0 0" fill="#969faa"/><path d="m112 248h32v16h-32zm0 0" fill="#969faa"/><path d="m192 280h32v16h-32zm0 0" fill="#969faa"/><path d="m192 248h32v16h-32zm0 0" fill="#969faa"/><path d="m272 280h32v16h-32zm0 0" fill="#969faa"/><path d="m272 248h32v16h-32zm0 0" fill="#969faa"/><path d="m352 280h32v16h-32zm0 0" fill="#969faa"/><path d="m352 248h32v16h-32zm0 0" fill="#969faa"/><path d="m432 280h32v16h-32zm0 0" fill="#969faa"/><path d="m432 248h32v16h-32zm0 0" fill="#969faa"/><path d="m496 160v-48h-40.695312c-46.097657-70.175781-123.207032-112-207.304688-112s-161.207031 41.824219-207.304688 112h-40.695312v48h16v66.273438l-16 9.0625v20.664062h24v32h-8v48h16v8c0 10.414062 6.710938 19.214844 16 22.527344v82.953125c-9.289062 3.304687-16 12.105469-16 22.519531v8h-32v16h496v-16h-32v-8c0-10.414062-6.710938-19.214844-16-22.527344v-82.945312c9.289062-3.3125 16-12.113282 16-22.527344v-8h16v-48h-8v-32h24v-20.664062l-16-9.0625v-66.273438zm-16-16h-145.183594l-28.230468-16h173.414062zm-8.222656 96h-37.617188l-186.160156-108.480469-186.160156 108.480469h-37.617188l223.777344-126.808594zm-79.777344 48v-32h32v32zm-112.207031-48c5.078125-6.703125 8.207031-14.960938 8.207031-24 0-22.054688-17.945312-40-40-40s-40 17.945312-40 40c0 9.039062 3.128906 17.296875 8.207031 24h-122.589843l154.382812-89.960938 154.382812 89.960938zm-55.792969-24c0-13.230469 10.769531-24 24-24s24 10.769531 24 24-10.769531 24-24 24-24-10.769531-24-24zm-120 40v32h-32v-32zm16 0h16v32h-16zm32 0h32v32h-32zm48 0h16v32h-16zm32 0h32v32h-32zm48 0h16v32h-16zm32 0h32v32h-32zm48 0h16v32h-16zm-104-156.664062v-79.847657c56.183594 22.289063 89.359375 64.871094 95.023438 92.511719h-72.679688zm-16 0-22.34375 12.664062h-72.679688c5.664063-27.640625 38.839844-70.222656 95.023438-92.511719zm195.984375 12.664062h-68.625c-4.597656-35.695312-38.902344-69.726562-75.253906-91.832031 57.621093 11.03125 108.949219 43.503906 143.878906 91.832031zm-232.097656-91.832031c-36.351563 22.105469-70.65625 56.136719-75.253907 91.832031h-68.617187c34.929687-48.328125 86.257813-80.800781 143.871094-91.832031zm-187.886719 107.832031h173.425781l-28.234375 16h-145.191406zm16 32h100.953125l-100.953125 57.207031zm8 96h16v32h-16zm56 80v8c0 4.414062-3.585938 8-8 8h-32c-4.414062 0-8-3.585938-8-8v-8zm320 112v-80h16v80zm-16-81.472656v82.953125c-9.289062 3.3125-16 12.113281-16 22.527343v8h-32v-8c0-10.414062-6.710938-19.214843-16-22.527343v-82.953125c9.289062-3.3125 16-12.113282 16-22.527344v-8h32v8c0 10.414062 6.710938 19.214844 16 22.527344zm-80 81.472656h-16v-80h16zm-24 16h32c4.414062 0 8 3.585938 8 8v8h-48v-8c0-4.414062 3.585938-8 8-8zm40-120c0 4.414062-3.585938 8-8 8h-32c-4.414062 0-8-3.585938-8-8v-8h48zm-48 22.527344v82.953125c-9.289062 3.3125-16 12.113281-16 22.527343v8h-48v-8c0-10.414062-6.710938-19.214843-16-22.527343v-82.953125c9.289062-3.3125 16-12.113282 16-22.527344v-8h48v8c0 10.414062 6.710938 19.214844 16 22.527344zm-96 81.472656h-16v-80h16zm-24 16h32c4.414062 0 8 3.585938 8 8v8h-48v-8c0-4.414062 3.585938-8 8-8zm40-120c0 4.414062-3.585938 8-8 8h-32c-4.414062 0-8-3.585938-8-8v-8h48zm-48 22.527344v82.953125c-9.289062 3.3125-16 12.113281-16 22.527343v8h-32v-8c0-10.414062-6.710938-19.214843-16-22.527343v-82.953125c9.289062-3.3125 16-12.113282 16-22.527344v-8h32v8c0 10.414062 6.710938 19.214844 16 22.527344zm-80 1.472656v80h-16v-80zm-32 104c0-4.414062 3.585938-8 8-8h32c4.414062 0 8 3.585938 8 8v8h-48zm352 8v-8c0-4.414062 3.585938-8 8-8h32c4.414062 0 8 3.585938 8 8v8zm48-136c0 4.414062-3.585938 8-8 8h-32c-4.414062 0-8-3.585938-8-8v-8h48zm16-24h-432v-16h432zm-8-32h-16v-32h16zm8-70.792969-100.953125-57.207031h100.953125zm0 0"/></svg>